<svg xmlns="http://www.w3.org/2000/svg" width="112" height="48"><path fill-rule="evenodd" d="M102.663 20.208s.144-7.872-9.4-7.872c-5.64 0-10.075 4.368-10.075 11.616 0 8.256 5.206 11.616 10.316 11.616 7.086 0 8.918-6.672 8.918-6.672h-.868s-1.977 3.024-6.363 3.024c-3.616 0-6.845-3.504-6.845-8.736 0-6.624 2.506-8.928 5.11-8.928 5.447 0 4.53 5.952 4.53 5.952h4.677zm-48.784.24c0-2.976-.723-8.112-8.58-8.112-9.063 0-9.16 5.952-9.16 5.952l5.062-.048s-.627-4.176 3.47-4.176c3.038 0 4.436 2.4 4.436 7.104v1.392c-1.398-.816-3.182-1.392-5.255-1.392-5.495 0-8.966 2.976-8.966 7.2 0 4.368 3.278 7.104 7.665 7.104 3.663 0 5.736-2.592 6.845-4.896h.386c0 2.352.819 4.416.819 4.416h3.953s-.723-2.112-.723-5.712v-8.832h.048zm-9.786 11.808c-2.603 0-4.58-1.632-4.58-4.176 0-2.64 1.977-4.56 5.159-4.56 2.024 0 3.374.576 4.483 1.488v1.44c-.386 3.408-2.362 5.808-5.062 5.808zM9.241 12.912c.627 11.088 0 22.176 0 22.176h4.965s-.627-11.088 0-22.176H9.241zm65.559 0c.627 11.088 0 22.176 0 22.176h4.965s-.627-11.088 0-22.176H74.8zm-40.878 2.88l-.482-2.88H16.954l-.482 2.88c1.35-.24 4.29-.384 6.363-.48.434 10.224-.097 19.776-.097 19.776h4.966s-.53-9.552-.097-19.776c2.025.096 4.965.24 6.315.48zm29.55 16.944c-.434-10.272.096-19.872.096-19.872h-4.917s.627 11.088 0 22.176h13.257l.482-4.224h-.338c-2.844 1.872-7.423 1.92-8.58 1.92z"/></svg>