<svg xmlns="http://www.w3.org/2000/svg" width="112" height="48"><path fill-rule="evenodd" d="M22.867 40.644c-.213-.052-.424-.115-.639-.157-1.746-.347-2.87-1.982-2.51-3.632.075-.336.23-.476.57-.562 5.066-1.283 8.331-4.46 9.487-9.6 1.712-7.612-4.21-14.948-11.965-14.966-6.083-.015-11.119 4.102-12.297 10.052-1.177 5.942 2.195 11.952 7.872 14.03 1.265.463 1.898 2.528 1.115 3.637-.313.445-.77.622-1.274.56-.442-.055-.902-.159-1.297-.356-5.85-2.925-9.172-7.637-9.838-14.211-.023-.224-.06-.446-.091-.669v-1.156c.063-.555.122-1.11.188-1.663.83-6.909 6.22-12.93 12.956-14.423 1.165-.258 1.702-.382 2.895-.468.312-.022 1.124-.074 1.593-.056 1.246.047 2.487.297 3.69.604 6.746 1.721 11.726 7.385 12.667 14.33 1.053 7.76-3.53 15.477-10.808 18.156-.708.262-1.472.37-2.21.55h-.104zm88.057-10.407c-.29.116-.573.306-.87.332-.586.053-1.18.015-1.771.014-.404 0-.612-.203-.615-.612l-.003-.315V14.369c0-.856.082-.938.92-.938.503 0 1.008.017 1.511-.006.366-.017.643.088.828.412v16.4zM83.36 19.707c1.323.314 2.657.23 3.989.22.432-.004.682.15.868.51.325.626.115 1.057-.578 1.162l-.795.122c.532.903.879 1.8.76 2.795-.268 2.25-1.832 3.836-4.073 4.227-.541.095-1.068.295-1.586.488-.146.055-.333.26-.33.391.004.134.2.344.345.38a51.24 51.24 0 002.543.534c1.145.214 2.196.589 2.814 1.677.834 1.469.45 3.345-.876 4.387-1.982 1.557-5.583 1.593-7.487.075a3.058 3.058 0 01.029-4.853c.23-.179.48-.33.726-.497-1.177-1.09-1.167-1.936.588-3.118-.4-.347-.85-.655-1.198-1.054-1.117-1.283-1.49-2.77-.89-4.392.635-1.716 1.941-2.69 3.704-3.027.47-.09.99-.136 1.447-.028zm-.65 12.985c-.518.148-1.082.254-1.597.476-.434.188-.686.59-.652 1.102.034.513.33.856.798.996 1.144.342 2.266.233 3.338-.288.38-.185.643-.5.63-.95-.014-.478-.317-.794-.734-.924-.557-.174-1.14-.268-1.783-.412zm.053-10.713c-1.254.005-2.252.961-2.28 2.186-.03 1.263.986 2.286 2.278 2.294 1.272.008 2.285-.965 2.3-2.212.018-1.265-1.005-2.274-2.298-2.268zm-33.798-.804c.845-.792 1.79-1.306 2.9-1.494 2.877-.485 5.187 1.182 5.514 4.108.156 1.403.09 2.831.115 4.248a56.43 56.43 0 010 1.84c-.007.553-.166.71-.724.717a72.65 72.65 0 01-1.773 0c-.554-.006-.707-.156-.71-.726-.005-1.682 0-3.363-.003-5.045-.003-1.289-.526-2.08-1.493-2.276-1.208-.244-2.521.39-2.958 1.456-.083.2-.089.444-.09.667-.007 1.717-.002 3.434-.004 5.15-.001.706-.066.77-.782.775-.557.004-1.113-.008-1.67.004-.453.01-.666-.178-.665-.655.008-3.206.009-6.411-.003-9.617-.002-.324.134-.421.412-.47.905-.162 1.483.156 1.796 1.006.035.095.081.185.138.312m25.037 2.718c-.001-1.013-.863-1.813-1.908-1.834-1.115-.024-2.136 1.024-2.032 1.834h3.94zm-4.19 1.874c.03 1.28 1.052 2.284 2.31 2.357.785.045 1.53-.118 2.18-.567.435-.3.743-.262 1.047.173.2.284.46.524.688.787.447.517.44.663-.1 1.1-.995.806-2.148 1.21-3.415 1.25-3.263.099-5.672-2.118-5.786-5.486-.075-2.201.865-4.003 2.826-5.084 1.872-1.032 3.785-.984 5.564.258 1.605 1.12 2.172 2.747 2.005 4.668-.04.462-.34.548-.732.546-1.998-.006-3.995-.002-5.993-.002h-.594zm33.106 1.1c-.078-.284-.078-.749-.247-.823-.813-.359-1.678-.482-2.491.025-.446.278-.646.73-.603 1.257.042.52.285.934.771 1.159 1.074.495 2.5-.422 2.57-1.618m.616 2.82c-.72.347-1.403.79-2.149 1.015-2.81.85-5.238-1.354-4.656-4.177.276-1.338 1.452-2.345 3.076-2.587a8.07 8.07 0 011.554-.08c.496.023.988.143 1.482.22.185-1.26-.298-1.871-1.535-1.809-.896.046-1.792.192-2.677.354-.447.081-.667-.045-.743-.473-.08-.447-.152-.895-.226-1.344-.06-.367.072-.612.443-.708 1.628-.42 3.275-.66 4.947-.357 1.622.295 2.575 1.473 2.648 3.354.073 1.87.048 3.744.065 5.616.003.385-.029.773.008 1.155.041.43-.16.593-.542.659-.778.133-1.237-.098-1.695-.838m-43.625-6.825c-.613-.195-1.19-.278-1.637-.565-.214-.137-.278-.674-.24-1.01.051-.45.145-1.034.447-1.281.302-.248.881-.152 1.43-.218v-1.981c0-.245.004-.49 0-.736-.01-.485.242-.703.706-.706.608-.003 1.216.006 1.824-.009.443-.011.632.187.627.63-.01.925-.003 1.85-.003 2.868h1.889c.917.002 1.007.093 1.007 1.02 0 .367-.007.735.002 1.103.011.48-.209.71-.69.707-.678-.005-1.355.004-2.033.01-.031 0-.063.022-.175.065v1.155c0 .963-.011 1.926.004 2.889.015.918.29 1.155 1.194 1.036.29-.038.577-.125.857-.215.386-.122.633-.038.75.384.141.504.354.992.452 1.504.037.195-.1.572-.251.633-1.264.514-2.57.906-3.953.655-1.194-.216-1.981-1.043-2.09-2.359-.122-1.478-.087-2.97-.116-4.457-.008-.414-.001-.83-.001-1.122m31.811-1.686c.355-.318.664-.651 1.026-.91 1.077-.767 2.266-.822 3.482-.427.684.223.763.514.408 1.14-.241.426-.491.846-.723 1.277-.192.358-.427.437-.85.367-.493-.081-1.05-.08-1.516.077-.652.219-1.05.686-1.026 1.504.054 1.871.019 3.745.016 5.618 0 .658-.106.766-.752.773-.539.005-1.077.004-1.615 0-.689-.003-.8-.12-.803-.84-.002-1.19 0-2.38 0-3.57 0-1.89.016-3.78-.011-5.67-.007-.476.174-.6.597-.615 1.015-.036 1.278.125 1.67 1.108.024.06.065.113.097.168M44.06 25.19c0 1.541.002 3.082-.001 4.623-.002.628-.14.765-.772.77-.608.006-1.217 0-1.825.001-.408.001-.608-.199-.608-.61.001-3.17.002-6.339-.001-9.508 0-.417.206-.613.606-.616.643-.004 1.286 0 1.929-.002.48 0 .68.238.676.72-.012 1.54-.004 3.082-.004 4.622m-1.617-10.937c.908-.003 1.615.704 1.621 1.619.006.89-.73 1.643-1.61 1.644-.877.001-1.626-.746-1.635-1.633-.01-.877.738-1.628 1.624-1.63"/></svg>