<svg xmlns="http://www.w3.org/2000/svg" width="128" height="48"><path fill-rule="evenodd" d="M11.673 14.4c2.945 0 5.49 1.345 6.909 3.855l-4 2.181c-.546-1.163-1.564-1.854-2.91-1.854-1.163 0-2.108.509-2.108 1.49 0 2.692 9.381 1.019 9.381 7.71 0 3.927-3.418 5.818-7.309 5.818C8 33.6 5.31 32.073 4 29.273l4.073-2.291c.509 1.49 1.745 2.363 3.563 2.363 1.491 0 2.51-.509 2.51-1.563 0-2.655-9.382-1.2-9.382-7.6 0-3.71 3.163-5.782 6.909-5.782zm19.127 0c5.345 0 9.636 4.182 9.636 9.6 0 5.418-4.29 9.6-9.636 9.6-5.345 0-9.6-4.182-9.6-9.6 0-5.418 4.255-9.6 9.6-9.6zm17.345.51v10.58c0 2.474 1.491 3.746 3.6 3.746 2.291 0 4-1.345 4-4.509V14.91h4.691v18.182h-4.69v-2.036c-1.091 1.636-2.982 2.545-5.419 2.545-3.854 0-6.872-2.69-6.872-7.527V14.909h4.69zm38.182-.51c3.564 0 6.655 1.89 8.146 4.69l-4.037 2.365c-.727-1.491-2.29-2.437-4.145-2.437-2.8 0-4.873 2.073-4.873 4.982 0 2.873 2.073 4.945 4.873 4.945 1.89 0 3.454-.909 4.182-2.4l4.072 2.328c-1.563 2.836-4.654 4.727-8.218 4.727-5.527 0-9.6-4.182-9.6-9.6 0-5.418 4.073-9.6 9.6-9.6zm19.491 0c5.382 0 9.2 4.255 9.2 9.6 0 .69-.073 1.31-.182 1.927h-13.709c.655 2.4 2.655 3.418 5.128 3.418 1.818 0 3.272-.763 4.072-1.818l3.782 2.182c-1.709 2.473-4.436 3.891-7.927 3.891-6.11 0-9.964-4.182-9.964-9.6 0-5.418 3.891-9.6 9.6-9.6zm-30.873.145v5.237c-2.436-.291-5.527.8-5.527 4.618v8.69h-4.69V14.91h4.69v3.126c.946-2.472 3.237-3.49 5.527-3.49zm45.873 12.182a3.182 3.182 0 110 6.364 3.182 3.182 0 010-6.364zM30.8 18.982c-2.764 0-4.91 2.073-4.91 5.018s2.146 5.018 4.91 5.018c2.8 0 4.945-2.073 4.945-5.018S33.6 18.982 30.8 18.982zm75.018-.364c-2.509 0-4.218 1.346-4.763 3.673h9.272c-.582-2.618-2.545-3.673-4.509-3.673z"/></svg>