<svg xmlns="http://www.w3.org/2000/svg" width="112" height="48" viewBox="0 0 112 48">
  <path fill-rule="evenodd" d="M93.6626892 8.208C93.6626892 8.208 93.8071795.336 84.2625641.336 78.6225641.336 74.1876923 4.704 74.1876923 11.952 74.1876923 20.208 79.3938462 23.568 84.5035897 23.568 91.5897436 23.568 93.4215385 16.896 93.4215385 16.896L92.5538462 16.896C92.5538462 16.896 90.5774359 19.92 86.1907692 19.92 82.5753846 19.92 79.345641 16.416 79.345641 11.184 79.345641 4.56 81.8523077 2.256 84.4553846 2.256 89.9025641 2.256 88.9866667 8.208 88.9866667 8.208L93.6626892 8.208zM44.8789744 8.448C44.8789744 5.472 44.1558974.336 36.2984615.336 27.2358974.336 27.1394872 6.288 27.1394872 6.288L32.2010256 6.24C32.2010256 6.24 31.574359 2.064 35.6717949 2.064 38.7087179 2.064 40.1066667 4.464 40.1066667 9.168L40.1066667 10.56C38.7087179 9.744 36.9251282 9.168 34.8523077 9.168 29.3569231 9.168 25.8861538 12.144 25.8861538 16.368 25.8861538 20.736 29.1641026 23.472 33.5507692 23.472 37.214359 23.472 39.2871795 20.88 40.3958974 18.576L40.7815385 18.576C40.7815385 20.928 41.6010256 22.992 41.6010256 22.992L45.5538462 22.992C45.5538462 22.992 44.8307692 20.88 44.8307692 17.28L44.8307692 8.448 44.8789744 8.448zM35.0933333 20.256C32.4902564 20.256 30.5138462 18.624 30.5138462 16.08 30.5138462 13.44 32.4902564 11.52 35.6717949 11.52 37.6964103 11.52 39.0461538 12.096 40.1548718 13.008L40.1548718 14.448 40.1548718 14.448C39.7692308 17.856 37.7928205 20.256 35.0933333 20.256zM.241025641.912C.867692308 12 .241025641 23.088.241025641 23.088L5.20615385 23.088C5.20615385 23.088 4.57948718 12 5.20615385.912L.241025641.912zM65.8.912C66.4266667 12 65.8 23.088 65.8 23.088L70.7651282 23.088C70.7651282 23.088 70.1384615 12 70.7651282.912L65.8.912zM24.9220513 3.792L24.44.912 16.1969231.912 16.1969231.912 16.1969231.912 16.1969231.912 7.95384615.912 7.47179487 3.792C8.82153846 3.552 11.7620513 3.408 13.8348718 3.312 14.2687179 13.536 13.7384615 23.088 13.7384615 23.088L18.7035897 23.088C18.7035897 23.088 18.1733333 13.536 18.6071795 3.312 20.6317949 3.408 23.5723077 3.552 24.9220513 3.792zM54.4717949 20.736C54.0379487 10.464 54.5682051.864 54.5682051.864L49.6512821.864C49.6512821.864 50.2779487 11.952 49.6512821 23.04L54.1825641 23.04 54.1825641 23.04 62.9076923 23.04 63.3897436 18.816 63.0523077 18.816C60.2082051 20.688 55.6287179 20.736 54.4717949 20.736z" transform="translate(9 12)"/>
</svg>
