<svg xmlns="http://www.w3.org/2000/svg" width="128" height="48" viewBox="0 0 128 48">
  <path fill-rule="evenodd" d="M7.67272727,0.4 C10.6181818,0.4 13.1636364,1.74545455 14.5818182,4.25454545 L10.5818182,6.43636364 C10.0363636,5.27272727 9.01818182,4.58181818 7.67272727,4.58181818 C6.50909091,4.58181818 5.56363636,5.09090909 5.56363636,6.07272727 C5.56363636,8.76363636 14.9454545,7.09090909 14.9454545,13.7818182 C14.9454545,17.7090909 11.5272727,19.6 7.63636364,19.6 C4,19.6 1.30909091,18.0727273 -1.42108547e-13,15.2727273 L4.07272727,12.9818182 C4.58181818,14.4727273 5.81818182,15.3454545 7.63636364,15.3454545 C9.12727273,15.3454545 10.1454545,14.8363636 10.1454545,13.7818182 C10.1454545,11.1272727 0.763636364,12.5818182 0.763636364,6.18181818 C0.763636364,2.47272727 3.92727273,0.4 7.67272727,0.4 Z M26.8,0.4 C32.1454545,0.4 36.4363636,4.58181818 36.4363636,10 C36.4363636,15.4181818 32.1454545,19.6 26.8,19.6 C21.4545455,19.6 17.2,15.4181818 17.2,10 C17.2,4.58181818 21.4545455,0.4 26.8,0.4 Z M44.1454545,0.909090909 L44.1454545,11.4909091 C44.1454545,13.9636364 45.6363636,15.2363636 47.7454545,15.2363636 C50.0363636,15.2363636 51.7454545,13.8909091 51.7454545,10.7272727 L51.7454545,0.909090909 L56.4363636,0.909090909 L56.4363636,19.0909091 L51.7454545,19.0909091 L51.7454545,17.0545455 C50.6545455,18.6909091 48.7636364,19.6 46.3272727,19.6 C42.4727273,19.6 39.4545455,16.9090909 39.4545455,12.0727273 L39.4545455,0.909090909 L44.1454545,0.909090909 Z M82.3272727,0.4 C85.8909091,0.4 88.9818182,2.29090909 90.4727273,5.09090909 L86.4363636,7.45454545 C85.7090909,5.96363636 84.1454545,5.01818182 82.2909091,5.01818182 C79.4909091,5.01818182 77.4181818,7.09090909 77.4181818,10 C77.4181818,12.8727273 79.4909091,14.9454545 82.2909091,14.9454545 C84.1818182,14.9454545 85.7454545,14.0363636 86.4727273,12.5454545 L90.5454545,14.8727273 C88.9818182,17.7090909 85.8909091,19.6 82.3272727,19.6 C76.8,19.6 72.7272727,15.4181818 72.7272727,10 C72.7272727,4.58181818 76.8,0.4 82.3272727,0.4 Z M101.818182,0.4 C107.2,0.4 111.018182,4.65454545 111.018182,10 C111.018182,10.6909091 110.945455,11.3090909 110.836364,11.9272727 L97.1272727,11.9272727 C97.7818182,14.3272727 99.7818182,15.3454545 102.254545,15.3454545 C104.072727,15.3454545 105.527273,14.5818182 106.327273,13.5272727 L110.109091,15.7090909 C108.4,18.1818182 105.672727,19.6 102.181818,19.6 C96.0727273,19.6 92.2181818,15.4181818 92.2181818,10 C92.2181818,4.58181818 96.1090909,0.4 101.818182,0.4 Z M70.9454545,0.545454545 L70.9454545,5.78181818 C68.5090909,5.49090909 65.4181818,6.58181818 65.4181818,10.4 L65.4181818,19.0909091 L60.7272727,19.0909091 L60.7272727,0.909090909 L65.4181818,0.909090909 L65.4181818,4.03636364 C66.3636364,1.56363636 68.6545455,0.545454545 70.9454545,0.545454545 Z M116.818182,12.7272727 C118.575451,12.7272727 120,14.1518213 120,15.9090909 C120,17.6663606 118.575451,19.0909091 116.818182,19.0909091 C115.060912,19.0909091 113.636364,17.6663606 113.636364,15.9090909 C113.636364,14.1518213 115.060912,12.7272727 116.818182,12.7272727 Z M26.8,4.98181818 C24.0363636,4.98181818 21.8909091,7.05454545 21.8909091,10 C21.8909091,12.9454545 24.0363636,15.0181818 26.8,15.0181818 C29.6,15.0181818 31.7454545,12.9454545 31.7454545,10 C31.7454545,7.05454545 29.6,4.98181818 26.8,4.98181818 Z M101.818182,4.61818182 C99.3090909,4.61818182 97.6,5.96363636 97.0545455,8.29090909 L106.327273,8.29090909 C105.745455,5.67272727 103.781818,4.61818182 101.818182,4.61818182 Z" transform="translate(4 14)"/>
</svg>
