<svg xmlns="http://www.w3.org/2000/svg" width="112" height="48" viewBox="0 0 112 48">
  <path fill-rule="evenodd" d="M20.8666492 33.6444675C20.6539662 33.5915099 20.4431238 33.5292796 20.2283959 33.4866251 18.4815328 33.1404433 17.3584034 31.5051463 17.7189418 29.855219 17.7925629 29.518516 17.9477805 29.379219 18.2874597 29.2932917 23.3536079 28.0095342 26.6191088 24.8337281 27.7749587 19.6937524 29.4866473 12.0808433 23.5654728 4.74487963 15.8101126 4.72674629 9.72738086 4.71232205 4.69129456 8.82900084 3.51294934 14.7785887 2.33603565 20.7213766 5.70808255 26.7309281 11.3854897 28.8090493 12.6499306 29.2718614 13.2828668 31.3370008 12.5002345 32.4464311 12.1869362 32.8906978 11.7298724 33.0679099 11.2255685 33.0054736 10.7842514 32.9510736 10.3237111 32.8474251 9.92861163 32.649813 4.07901313 29.7245766.756864916 25.0127948.0907992495 18.4386372.0680994371 18.2150614.0306754221 17.9929281-2.48689958e-14 17.7701766L-2.48689958e-14 16.6137645C.062782364 16.0594614.121883677 15.5047463.188347092 14.9508554 1.01883302 8.04226144 6.4089137 2.02014023 13.1444184.528055384 14.3092664.269861445 14.8462908.145606899 16.0391557.0600917479 16.351227.0376311418 17.1633077-.0140900703 17.6324371.00363114184 18.8782683.05061296 20.1193959.300976596 21.3228949.608006899 28.0678068 2.3294372 33.0478593 7.99342508 33.9893902 14.9384917 35.0415572 22.6989402 30.4592627 30.4148796 23.1810075 33.0944917 22.4726098 33.3555705 21.7089962 33.4647827 20.9709456 33.6444675L20.8666492 33.6444675zM108.923802 23.2369027C108.634431 23.3529148 108.351399 23.5426966 108.054052 23.5692784 107.467947 23.6218239 106.873866 23.5841148 106.282853 23.5830845 105.879164 23.5822602 105.671389 23.3803208 105.667504 22.9708784 105.666481 22.8659936 105.665459 22.7609027 105.665459 22.6558117 105.665223 17.560139 105.66505 12.4644663 105.665459 7.36879357 105.665663 6.51343599 105.74726 6.43142387 106.584495 6.43059963 107.088185 6.43018751 107.593102 6.44811478 108.095975 6.42462387 108.461626 6.40752084 108.739136 6.51302387 108.923802 6.83695114L108.923802 23.2369027zM81.3598086 12.706196C82.6829418 13.0208505 84.0171182 12.937396 85.3488405 12.9260627 85.780546 12.9225596 86.0306529 13.076899 86.217364 13.4368869 86.5421144 14.0631051 86.3316811 14.4943899 85.6388255 14.5986566 85.4001707 14.6347172 85.1617205 14.6718081 84.8437186 14.7206445 85.3760394 15.6238081 85.7228762 16.5201717 85.6042645 17.5158566 85.3357523 19.7664505 83.7717148 21.3520869 81.5309775 21.7431899 80.989863 21.8375657 80.4630638 22.0376505 79.9450582 22.2309354 79.7986341 22.2855414 79.6123321 22.4905717 79.6158086 22.6222445 79.6192852 22.7559778 79.8149944 22.9663657 79.9599869 23.0011899 80.8021295 23.2035414 81.6518386 23.3766324 82.5033884 23.5359172 83.6481951 23.7502202 84.6993396 24.1248384 85.3173471 25.2132505 86.1513096 26.6816384 85.7666398 28.5580263 84.440848 29.5996627 82.4588068 31.1570687 78.8581257 31.1933354 76.953591 29.6748748 75.3664447 28.4092505 75.3783058 26.0696384 76.9828349 24.8221475 77.2126961 24.6432869 77.463621 24.4916263 77.7088199 24.3249233 76.5319062 23.2346566 76.5421313 22.389396 78.296561 21.2072263 77.8961445 20.8598081 77.4462383 20.5519536 77.099197 20.1530202 75.9824071 18.8696748 75.6091895 17.3833596 76.2092008 15.7614566 76.844182 14.0449717 78.150137 13.0711293 79.9127467 12.7344263 80.3826942 12.6445839 80.9033583 12.5978081 81.3598086 12.706196zM80.7098987 25.6915172C80.1923021 25.840499 79.6282833 25.9464142 79.1133452 26.1683414 78.6787767 26.3558566 78.4270338 26.758499 78.4607767 27.2703536 78.4945197 27.7834445 78.7914578 28.1257111 79.2591557 28.2656263 80.40294 28.608099 81.5246379 28.499093 82.5972552 27.9777596 82.9776304 27.7929233 83.2395985 27.4778566 83.2269193 27.0274081 83.2134221 26.5499657 82.910349 26.2344869 82.4927542 26.1038445 81.9356886 25.9295172 81.353469 25.8359657 80.7098987 25.6915172zM80.7626604 14.9786127C79.5090582 14.9835778 78.5114934 15.9403172 78.482863 17.1647293 78.4536191 18.4278808 79.4693846 19.4507657 80.7612289 19.4590081 82.0334409 19.4672505 83.0457298 18.4940263 83.0618856 17.2471536 83.0786548 15.9823536 82.0559362 14.9734808 80.7626604 14.9786127zM46.9651347 14.1754699C47.8097313 13.3827548 48.7541253 12.8688396 49.8658026 12.6813245 52.7423392 12.1958457 55.051994 13.8626699 55.3787895 16.7889366 55.5352341 18.1915911 55.4683617 19.6200033 55.4943336 21.036876 55.5055812 21.6497002 55.5023092 22.2631427 55.4941291 22.876173 55.4865625 23.4300639 55.3276638 23.5870821 54.7703936 23.5940881 54.179585 23.6017124 53.5883674 23.6010942 52.9973542 23.5942942 52.4431516 23.5879063 52.2901835 23.4376881 52.287934 22.8681366 52.2815944 21.186476 52.2877295 19.5048154 52.2840484 17.8231548 52.2813899 16.5344517 51.7582717 15.7425608 50.7907689 15.5470093 49.5829752 15.3026214 48.2698627 15.9379063 47.8330447 17.0028275 47.7504255 17.2039427 47.7440859 17.4466821 47.7430634 17.6704639 47.7361103 19.3871548 47.7406094 21.1038457 47.7385644 22.8203305 47.7377463 23.525676 47.6731235 23.5893487 46.9565456 23.5947063 46.4002979 23.5990336 45.8438458 23.5870821 45.2878026 23.5986214 44.8340109 23.6081002 44.6209189 23.4207911 44.6219415 22.944173 44.6299171 19.7384881 44.6307351 16.5328033 44.6186612 13.3273245 44.6174424 13.0033972 44.7534368 12.9059305 45.0309471 12.856476 45.9364856 12.6947184 46.5135925 13.0126699 46.8270953 13.8632881 46.8620653 13.9576639 46.9082829 14.0477124 46.9651347 14.1754699M72.0019439 16.8932857C72.0009214 15.8798796 71.1391465 15.0803645 70.0941371 15.0585221 68.9789833 15.0350311 67.9576962 16.0834675 68.0621972 16.8932857L72.0019439 16.8932857zM67.8122947 18.7667887C67.8427657 20.046219 68.8636437 21.0505584 70.1219495 21.1237099 70.9070358 21.1692493 71.6518351 21.0056372 72.302563 20.5570433 72.7371315 20.2576372 73.0447038 20.2947281 73.3494129 20.7301342 73.5481897 21.0140857 73.8087263 21.2535281 74.0365424 21.5170796 74.4835856 22.0340857 74.477246 22.1801827 73.9373585 22.6170311 72.9416343 23.4229342 71.788852 23.8274311 70.5217525 23.8661705 67.2587056 23.9659039 64.8496625 21.7488978 64.7355499 18.3806311 64.6611109 16.1799039 65.6012103 14.378316 67.5617788 13.2969099 69.4335931 12.2645463 71.3471259 12.3133827 73.1260959 13.5546917 74.731034 14.6744251 75.2981203 16.3023039 75.131246 18.2232008 75.0909589 18.6845705 74.7913623 18.7707039 74.3987169 18.7694675 72.4013379 18.7630796 70.4037544 18.7667887 68.4061709 18.7667887 68.2186418 18.7669948 68.0311128 18.7667887 67.8122947 18.7667887L67.8122947 18.7667887zM100.917619 19.8674821C100.839704 19.5829124 100.839908 19.1184517 100.67058 19.0438578 99.8580902 18.6853124 98.9930433 18.561676 98.1795311 19.0689972 97.734124 19.346973 97.5337113 19.7986578 97.5768614 20.3255548 97.6193979 20.8454457 97.8617338 21.2604517 98.3484505 21.4848517 99.4222947 21.9804275 100.848702 21.0630457 100.917619 19.8674821M101.533991 22.6872154C100.813118 23.0344275 100.131306 23.4766336 99.3850752 23.7022699 96.5750021 24.5522699 94.1473492 22.3484517 94.7289552 19.5254214 95.0048295 18.1872639 96.1813341 17.1798336 97.8046775 16.9379184 98.316139 16.8618821 98.8427338 16.8340639 99.3586944 16.858173 99.8550227 16.8814578 100.346852 17.0007669 100.840726 17.0776275 101.025597 15.8188033 100.542766 15.2070093 99.3063417 15.2692396 98.4098013 15.314573 97.514488 15.4614942 96.6293998 15.6226336 96.1817432 15.7042336 95.9619026 15.5781245 95.8860321 15.1503427 95.8064805 14.7031911 95.733882 14.2545972 95.6600565 13.8062093 95.5995236 13.4385972 95.7320415 13.1942093 96.1034186 13.0981851 97.7310565 12.6776154 99.3777131 12.4375548 101.049933 12.7410821 102.671844 13.0355427 103.625237 14.2144154 103.698449 16.0953366 103.771047 17.9651305 103.746302 19.8390457 103.762662 21.7111063 103.766139 22.0960275 103.734237 22.4840396 103.770843 22.8656639 103.812152 23.2969487 103.61133 23.4587063 103.228706 23.5246457 102.45139 23.658379 101.992486 23.4273851 101.533991 22.6872154M57.9089188 15.862076C57.2962283 15.6671427 56.7195304 15.5843063 56.2718737 15.2970578 56.0577593 15.1596154 55.9937499 14.6234457 56.0317874 14.2875669 56.0831176 13.8360881 56.1771889 13.2527305 56.4786261 13.0056639 56.7808812 12.757773 57.3604422 12.8535911 57.9089188 12.7878578L57.9089188 10.8065851C57.9089188 10.561579 57.9128043 10.3163669 57.9085098 10.0713608 57.8995116 9.58588205 58.1514591 9.36786993 58.614658 9.3653972 59.2226448 9.36230629 59.8310407 9.37137296 60.4388231 9.35612448 60.8817762 9.3449972 61.0707368 9.54343357 61.0660332 9.98605175 61.0556036 10.9110578 61.0627612 11.8362699 61.0627612 12.8542093 61.7190107 12.8542093 62.3353822 12.8533851 62.9515492 12.8544154 63.8693578 12.8558578 63.95893 12.9469366 63.9591345 13.8737972 63.9591345 14.2414093 63.9517724 14.6092275 63.960566 14.9768396 63.9722227 15.4577851 63.7523822 15.6875427 63.2709826 15.6838336 62.5934647 15.6786821 61.9159469 15.6879548 61.2384291 15.6935184 61.2067311 15.6937245 61.1750332 15.7161851 61.0631702 15.7594578L61.0631702 16.9142214C61.0633747 17.8771427 61.0519225 18.840476 61.0670557 19.8029851 61.0817799 20.7211911 61.3570407 20.9577487 62.2613522 20.8392639 62.5515417 20.8011427 62.8380501 20.7135669 63.1184235 20.6243427 63.5037068 20.5015305 63.7511552 20.5862214 63.8687443 21.0078214 64.0094422 21.5124639 64.2217161 22.0002093 64.3198775 22.5116517 64.3573015 22.7069972 64.2196711 23.0838821 64.068748 23.1452881 62.8045116 23.6592033 61.4987612 24.0511305 60.1155041 23.8003548 58.9216167 23.5841972 58.1346899 22.7570699 58.0260989 21.441373 57.9044197 19.9626821 57.9391852 18.4708033 57.9101458 16.9844881 57.9019657 16.5696881 57.9089188 16.1542699 57.9089188 15.862076M89.7202927 14.1759645C90.0746961 13.858219 90.3839043 13.525019 90.7458743 13.2668251 91.8225816 12.4986311 93.0117655 12.4440251 94.2275347 12.8392493 94.9120056 13.0620008 94.9907392 13.3527524 94.6359268 13.9795887 94.3950225 14.4048978 94.1449156 14.8250554 93.9132139 15.255516 93.7205722 15.6136493 93.4855985 15.6931887 93.0622777 15.6233342 92.5702439 15.5419402 92.0123602 15.5427645 91.5467073 15.6995766 90.8947523 15.9188251 90.4969944 16.3859645 90.5207167 17.203819 90.5751144 19.0750554 90.539531 20.9487645 90.5370769 22.8216493 90.5360544 23.4804251 90.4307355 23.5877827 89.7847111 23.5945827 89.2464597 23.6001463 88.7077992 23.5987039 88.1695478 23.595613 87.4811914 23.5916978 87.3691238 23.4758917 87.3674878 22.7555039 87.3646248 21.5652978 87.3666698 20.3750917 87.3666698 19.1850917 87.3666698 17.2948978 87.382621 15.4042917 87.3556266 13.5145099 87.3486735 13.0393342 87.5296585 12.9150796 87.9533884 12.9000372 88.9683358 12.8637705 89.2309174 13.0253221 89.6229493 14.0084372 89.6466717 14.0679887 89.6875722 14.1205342 89.7202927 14.1759645M42.0586623 18.1904166C42.0586623 19.7311317 42.0609118 21.2718469 42.0576398 22.8125621 42.0562083 23.4408408 41.9177598 23.5780772 41.2858462 23.5834348 40.6776548 23.5887924 40.0694634 23.5824045 39.461272 23.584259 39.0534934 23.5852893 38.8530807 23.3854105 38.8530807 22.9730833 38.8541032 19.8040772 38.8547167 16.6350711 38.8518535 13.4660651 38.8516492 13.0494105 39.0584015 12.8526227 39.458 12.8499439 40.1007523 12.8456166 40.7437092 12.8493257 41.386666 12.8480893 41.8662251 12.847059 42.0668424 13.0856772 42.0629568 13.5682711 42.0513002 15.1087802 42.0586623 16.6497014 42.0586623 18.1904166M40.4421084 7.2525071C41.3503054 7.25004084 42.0574762 7.95662266 42.0630286 8.87194387 42.0685193 9.76253781 41.3321047 10.5148651 40.4533561 10.516103 39.576039 10.5173378 38.8273542 9.76974993 38.8177426 8.8832772 38.8083355 8.00566508 39.5562023 7.25498629 40.4421084 7.2525071" transform="translate(2 7)"/>
</svg>
